<svg width="30" height="30" viewBox="0 0 30 30" fill="none" xmlns="http://www.w3.org/2000/svg">
  <rect width="30" height="30" rx="8" fill="#00F073"/>
  <path d="M15.9167 11.3333C15.9167 8.80333 13.6617 6.75 10.875 6.75C8.08833 6.75 5.83333 8.80333 5.83333 11.3333H7.66667L8.58333 10.4167L9.5 11.3333H13.1667" stroke="#362E2E" stroke-width="1.5" stroke-linecap="round" stroke-linejoin="round"/>
  <path d="M15.9167 10.545C16.8449 9.85874 17.9707 9.49206 19.125 9.5C21.9117 9.5 24.1667 11.5533 24.1667 14.0833H21.4167L20.5 13.1667L19.5833 14.0833H16.8333" stroke="#362E2E" stroke-width="1.5" stroke-linecap="round" stroke-linejoin="round"/>
  <path d="M9.39917 12.9008C7.42833 14.8717 7.29083 17.915 9.07833 19.7117L12.965 15.8158L13.6067 15.1742L14.2575 14.5233L16.2008 12.58C14.4133 10.7833 11.37 10.93 9.39917 12.9008Z" stroke="#362E2E" stroke-width="1.5" stroke-linecap="round" stroke-linejoin="round"/>
  <path d="M14.0833 18.2083C14.5417 20.5 13.9275 22.3333 13.1667 24.1667H16.8333C18.6667 19.125 16.375 13.1667 15.9167 11.3333" stroke="#362E2E" stroke-width="1.5" stroke-linecap="round" stroke-linejoin="round"/>
</svg>
